<svg xmlns="http://www.w3.org/2000/svg" viewBox="0 0 257.11 168.72"><defs><style>.cls-1{fill:#fff;}.cls-2{fill:#fcb531;}</style></defs><g id="Layer_2" data-name="Layer 2"><g id="Layer_2-2" data-name="Layer 2"><path class="cls-1" d="M250.39,161.61a23.08,23.08,0,0,1-16.77,6.45l-100.65,0a12.61,12.61,0,0,1-3.74-1.05,29.49,29.49,0,0,1-3.58-2.52,28.62,28.62,0,0,0,8.9-5.32c5.65-5.54,7.24-12.19,7.93-15.29a29.57,29.57,0,0,0,.39-8.42l85.58-.19.26-36.13-46.19-.26-.26-29.16,74.84-.26v75.36A23.15,23.15,0,0,1,250.39,161.61Z"/><path class="cls-2" d="M143.61,135.89a34.14,34.14,0,0,1-.77,8.64c-.71,3.24-2.16,9.93-7.88,15.23a24.45,24.45,0,0,1-8.51,5.08,26.77,26.77,0,0,1-5.17,2.12,27.63,27.63,0,0,1-8.38,1.12l-83.87.6c-1.52.1-13.3.65-21.94-8.79C-1,151,0,140.12.13,138.47L0,103.37,36.25,85.82v49.81H107l.26-109.42c-.14-.91-1.72-12.09,6.71-19.87A22.73,22.73,0,0,1,130.71.66h12.83l.33,30.2Z"/><path class="cls-1" d="M257.1,22.77V38.22L229.23,51.16V30.26H144.07L143.74.06h89.88a22.37,22.37,0,0,1,16.25,5.42C257.41,12.2,257.15,21.52,257.1,22.77Z"/></g></g></svg>